<svg xmlns="http://www.w3.org/2000/svg" xmlns:xlink="http://www.w3.org/1999/xlink" width="199" zoomAndPan="magnify" viewBox="0 0 149.25 42" height="56" preserveAspectRatio="xMidYMid meet" version="1.2"><defs><clipPath id="779896f329"><path d="M 44 33 L 51 33 L 51 41 L 44 41 Z M 44 33 "/></clipPath><clipPath id="5ac3ef8b70"><path d="M 44.644531 35.429688 L 47.601562 33.515625 L 50.863281 38.5625 L 47.90625 40.472656 Z M 44.644531 35.429688 "/></clipPath><clipPath id="520fd5bd68"><path d="M 7 5.859375 L 46 5.859375 L 46 15 L 7 15 Z M 7 5.859375 "/></clipPath><clipPath id="a2335d70b7"><path d="M 1.371094 17 L 37 17 L 37 23 L 1.371094 23 Z M 1.371094 17 "/></clipPath><clipPath id="5681dac1ae"><path d="M 22 22 L 72.425781 22 L 72.425781 38 L 22 38 Z M 22 22 "/></clipPath><clipPath id="f06b55d964"><path d="M 17.8125 0 L 53.992188 0 L 53.992188 36.179688 L 17.8125 36.179688 Z M 17.8125 0 "/></clipPath><clipPath id="c0307416b3"><path d="M 35.902344 0 C 25.914062 0 17.8125 8.097656 17.8125 18.089844 C 17.8125 28.082031 25.914062 36.179688 35.902344 36.179688 C 45.894531 36.179688 53.992188 28.082031 53.992188 18.089844 C 53.992188 8.097656 45.894531 0 35.902344 0 Z M 35.902344 0 "/></clipPath><clipPath id="20b38e2973"><path d="M 20.933594 3.121094 L 50.871094 3.121094 L 50.871094 33.058594 L 20.933594 33.058594 Z M 20.933594 3.121094 "/></clipPath><clipPath id="4631efd546"><path d="M 35.902344 3.121094 C 27.636719 3.121094 20.933594 9.824219 20.933594 18.089844 C 20.933594 26.355469 27.636719 33.058594 35.902344 33.058594 C 44.171875 33.058594 50.871094 26.355469 50.871094 18.089844 C 50.871094 9.824219 44.171875 3.121094 35.902344 3.121094 Z M 35.902344 3.121094 "/></clipPath><clipPath id="e2de2a8a33"><path d="M 26.976562 9.003906 L 44.988281 9.003906 L 44.988281 27.863281 L 26.976562 27.863281 Z M 26.976562 9.003906 "/></clipPath><clipPath id="56d27de6d5"><path d="M 35.980469 9.003906 C 31.007812 9.003906 26.976562 13.222656 26.976562 18.421875 C 26.976562 23.621094 31.007812 27.839844 35.980469 27.839844 C 40.957031 27.839844 44.988281 23.621094 44.988281 18.421875 C 44.988281 13.222656 40.957031 9.003906 35.980469 9.003906 Z M 35.980469 9.003906 "/></clipPath><clipPath id="c8ec2f8438"><path d="M 31.09375 21.882812 L 33.605469 21.882812 L 33.605469 24.394531 L 31.09375 24.394531 Z M 31.09375 21.882812 "/></clipPath><clipPath id="587fc28c87"><path d="M 32.351562 21.882812 C 31.65625 21.882812 31.09375 22.445312 31.09375 23.140625 C 31.09375 23.832031 31.65625 24.394531 32.351562 24.394531 C 33.046875 24.394531 33.605469 23.832031 33.605469 23.140625 C 33.605469 22.445312 33.046875 21.882812 32.351562 21.882812 Z M 32.351562 21.882812 "/></clipPath><clipPath id="356e0ba727"><path d="M 26.355469 8.441406 L 45.273438 8.441406 L 45.273438 28.21875 L 26.355469 28.21875 Z M 26.355469 8.441406 "/></clipPath><clipPath id="fcd26f4a47"><path d="M 35.816406 8.441406 C 30.589844 8.441406 26.355469 12.867188 26.355469 18.328125 C 26.355469 23.789062 30.589844 28.21875 35.816406 28.21875 C 41.039062 28.21875 45.273438 23.789062 45.273438 18.328125 C 45.273438 12.867188 41.039062 8.441406 35.816406 8.441406 Z M 35.816406 8.441406 "/></clipPath><clipPath id="7c218d60ec"><path d="M 36.917969 11.03125 L 42.085938 11.03125 L 42.085938 16.199219 L 36.917969 16.199219 Z M 36.917969 11.03125 "/></clipPath><clipPath id="42c1dbc4ad"><path d="M 39.5 11.03125 C 38.074219 11.03125 36.917969 12.1875 36.917969 13.613281 C 36.917969 15.042969 38.074219 16.199219 39.5 16.199219 C 40.929688 16.199219 42.085938 15.042969 42.085938 13.613281 C 42.085938 12.1875 40.929688 11.03125 39.5 11.03125 Z M 39.5 11.03125 "/></clipPath></defs><g id="4736057f7a"><g clip-rule="nonzero" clip-path="url(#779896f329)"><g clip-rule="nonzero" clip-path="url(#5ac3ef8b70)"><path style=" stroke:none;fill-rule:nonzero;fill:#000080;fill-opacity:1;" d="M 44.644531 35.429688 L 47.601562 33.515625 L 50.863281 38.5625 L 47.90625 40.476562 Z M 44.644531 35.429688 "/></g></g><g clip-rule="nonzero" clip-path="url(#520fd5bd68)"><path style=" stroke:none;fill-rule:nonzero;fill:#2f4faa;fill-opacity:1;" d="M 43.84375 6.855469 C 43.941406 7.164062 44.230469 7.386719 44.574219 7.386719 C 44.996094 7.386719 45.339844 7.046875 45.339844 6.621094 C 45.339844 6.199219 44.996094 5.859375 44.574219 5.859375 C 44.230469 5.859375 43.941406 6.082031 43.84375 6.390625 L 32.117188 6.390625 L 24.574219 13.933594 L 9.425781 13.9375 C 9.332031 13.625 9.039062 13.398438 8.695312 13.398438 C 8.273438 13.398438 7.929688 13.742188 7.929688 14.164062 C 7.929688 14.589844 8.273438 14.929688 8.695312 14.929688 C 9.035156 14.929688 9.324219 14.707031 9.421875 14.402344 L 24.761719 14.398438 L 32.304688 6.855469 Z M 43.84375 6.855469 "/></g><path style=" stroke:none;fill-rule:nonzero;fill:#2f4faa;fill-opacity:1;" d="M 27.222656 15.542969 C 27.222656 15.964844 27.566406 16.304688 27.988281 16.304688 C 28.332031 16.304688 28.621094 16.082031 28.71875 15.773438 L 38.050781 15.773438 L 41.753906 19.476562 L 51.804688 19.476562 C 51.90625 19.835938 52.238281 20.097656 52.628906 20.097656 C 53.101562 20.097656 53.484375 19.714844 53.484375 19.242188 C 53.484375 18.769531 53.101562 18.386719 52.628906 18.386719 C 52.234375 18.386719 51.902344 18.652344 51.800781 19.015625 L 41.945312 19.015625 L 38.242188 15.3125 L 28.714844 15.3125 C 28.617188 15.003906 28.328125 14.777344 27.988281 14.777344 C 27.566406 14.777344 27.222656 15.117188 27.222656 15.542969 Z M 52.625 18.566406 C 52.996094 18.566406 53.300781 18.867188 53.300781 19.238281 C 53.300781 19.609375 53 19.914062 52.625 19.914062 C 52.257812 19.914062 51.953125 19.613281 51.953125 19.238281 C 51.953125 18.871094 52.257812 18.566406 52.625 18.566406 Z M 52.625 18.566406 "/><path style=" stroke:none;fill-rule:nonzero;fill:#2f4faa;fill-opacity:1;" d="M 65.535156 7.734375 C 65.117188 7.734375 64.765625 8.039062 64.691406 8.433594 L 51.675781 8.433594 L 48.332031 11.78125 L 33.160156 11.78125 C 33.066406 11.472656 32.773438 11.25 32.433594 11.25 C 32.007812 11.25 31.667969 11.589844 31.667969 12.011719 C 31.667969 12.4375 32.007812 12.777344 32.433594 12.777344 C 32.773438 12.777344 33.066406 12.554688 33.160156 12.246094 L 48.523438 12.246094 L 51.867188 8.902344 L 64.734375 8.902344 C 64.855469 9.226562 65.167969 9.453125 65.535156 9.453125 C 66.007812 9.453125 66.390625 9.070312 66.390625 8.597656 C 66.390625 8.117188 66.007812 7.734375 65.535156 7.734375 Z M 65.535156 9.261719 C 65.164062 9.261719 64.863281 8.960938 64.863281 8.589844 C 64.863281 8.21875 65.164062 7.917969 65.535156 7.917969 C 65.902344 7.917969 66.207031 8.21875 66.207031 8.589844 C 66.207031 8.960938 65.902344 9.261719 65.535156 9.261719 Z M 65.535156 9.261719 "/><g clip-rule="nonzero" clip-path="url(#a2335d70b7)"><path style=" stroke:none;fill-rule:nonzero;fill:#2f4faa;fill-opacity:1;" d="M 35.242188 17.90625 C 34.824219 17.90625 34.472656 18.210938 34.398438 18.605469 L 21.382812 18.605469 L 18.039062 21.949219 L 2.867188 21.949219 C 2.773438 21.640625 2.480469 21.417969 2.140625 21.417969 C 1.714844 21.417969 1.375 21.757812 1.375 22.179688 C 1.375 22.605469 1.714844 22.945312 2.140625 22.945312 C 2.480469 22.945312 2.773438 22.722656 2.867188 22.414062 L 18.230469 22.414062 L 21.574219 19.070312 L 34.441406 19.070312 C 34.5625 19.394531 34.875 19.621094 35.242188 19.621094 C 35.714844 19.621094 36.097656 19.238281 36.097656 18.765625 C 36.097656 18.289062 35.714844 17.90625 35.242188 17.90625 Z M 35.242188 19.433594 C 34.871094 19.433594 34.570312 19.132812 34.570312 18.761719 C 34.570312 18.390625 34.871094 18.085938 35.242188 18.085938 C 35.613281 18.085938 35.914062 18.386719 35.914062 18.761719 C 35.910156 19.132812 35.609375 19.433594 35.242188 19.433594 Z M 35.242188 19.433594 "/></g><path style=" stroke:none;fill-rule:nonzero;fill:#2f4faa;fill-opacity:1;" d="M 13.792969 33.070312 C 14.136719 33.070312 14.425781 32.847656 14.523438 32.539062 L 24.046875 32.539062 L 27.75 28.835938 L 37.605469 28.835938 C 37.707031 29.195312 38.039062 29.464844 38.433594 29.464844 C 38.90625 29.464844 39.289062 29.078125 39.289062 28.609375 C 39.289062 28.136719 38.90625 27.75 38.433594 27.75 C 38.042969 27.75 37.710938 28.015625 37.609375 28.375 L 27.558594 28.375 L 23.855469 32.078125 L 14.523438 32.078125 C 14.425781 31.769531 14.136719 31.542969 13.792969 31.542969 C 13.371094 31.542969 13.027344 31.886719 13.027344 32.308594 C 13.03125 32.730469 13.375 33.070312 13.792969 33.070312 Z M 37.761719 28.609375 C 37.761719 28.238281 38.0625 27.933594 38.433594 27.933594 C 38.804688 27.933594 39.105469 28.234375 39.105469 28.609375 C 39.105469 28.976562 38.804688 29.28125 38.433594 29.28125 C 38.0625 29.28125 37.761719 28.980469 37.761719 28.609375 Z M 37.761719 28.609375 "/><g clip-rule="nonzero" clip-path="url(#5681dac1ae)"><path style=" stroke:none;fill-rule:nonzero;fill:#2f4faa;fill-opacity:1;" d="M 71.65625 36.363281 C 71.53125 36.363281 71.410156 36.390625 71.304688 36.449219 L 66.65625 31.800781 L 47.308594 31.800781 L 38.472656 22.960938 L 38.40625 22.894531 L 24.429688 22.894531 C 24.328125 22.535156 23.996094 22.273438 23.605469 22.273438 C 23.132812 22.273438 22.75 22.660156 22.75 23.128906 C 22.75 23.601562 23.132812 23.984375 23.605469 23.984375 C 24 23.984375 24.332031 23.71875 24.429688 23.355469 L 38.214844 23.355469 L 47.050781 32.195312 L 47.117188 32.261719 L 66.464844 32.261719 L 70.980469 36.773438 C 70.921875 36.878906 70.890625 37 70.890625 37.125 C 70.890625 37.550781 71.234375 37.890625 71.65625 37.890625 C 72.082031 37.890625 72.421875 37.550781 72.421875 37.125 C 72.421875 36.703125 72.082031 36.363281 71.65625 36.363281 Z M 23.605469 23.804688 C 23.234375 23.804688 22.933594 23.503906 22.933594 23.128906 C 22.933594 22.757812 23.234375 22.457031 23.605469 22.457031 C 23.976562 22.457031 24.277344 22.757812 24.277344 23.128906 C 24.277344 23.503906 23.976562 23.804688 23.605469 23.804688 Z M 23.605469 23.804688 "/></g><g clip-rule="nonzero" clip-path="url(#f06b55d964)"><g clip-rule="nonzero" clip-path="url(#c0307416b3)"><path style=" stroke:none;fill-rule:nonzero;fill:#000080;fill-opacity:1;" d="M 17.8125 0 L 53.992188 0 L 53.992188 36.179688 L 17.8125 36.179688 Z M 17.8125 0 "/></g></g><g clip-rule="nonzero" clip-path="url(#20b38e2973)"><g clip-rule="nonzero" clip-path="url(#4631efd546)"><path style=" stroke:none;fill-rule:nonzero;fill:#ffffff;fill-opacity:1;" d="M 20.933594 3.121094 L 50.871094 3.121094 L 50.871094 33.058594 L 20.933594 33.058594 Z M 20.933594 3.121094 "/></g></g><g clip-rule="nonzero" clip-path="url(#e2de2a8a33)"><g clip-rule="nonzero" clip-path="url(#56d27de6d5)"><path style=" stroke:none;fill-rule:nonzero;fill:#000000;fill-opacity:1;" d="M 26.976562 9.003906 L 44.988281 9.003906 L 44.988281 27.863281 L 26.976562 27.863281 Z M 26.976562 9.003906 "/></g></g><g clip-rule="nonzero" clip-path="url(#c8ec2f8438)"><g clip-rule="nonzero" clip-path="url(#587fc28c87)"><path style=" stroke:none;fill-rule:nonzero;fill:#ff3131;fill-opacity:1;" d="M 31.09375 21.882812 L 33.605469 21.882812 L 33.605469 24.394531 L 31.09375 24.394531 Z M 31.09375 21.882812 "/></g></g><g style="fill:#000080;fill-opacity:1;"><g transform="translate(55.601385, 26.441446)"><path style="stroke:none" d="M 8.578125 -8.75 C 8.421875 -9.988281 7.421875 -10.609375 5.578125 -10.609375 C 3.734375 -10.609375 2.8125 -10.035156 2.8125 -8.890625 C 2.8125 -8.410156 3.003906 -8.046875 3.390625 -7.796875 C 3.785156 -7.554688 4.273438 -7.351562 4.859375 -7.1875 C 5.453125 -7.03125 6.097656 -6.882812 6.796875 -6.75 C 7.492188 -6.613281 8.132812 -6.421875 8.71875 -6.171875 C 9.3125 -5.929688 9.800781 -5.59375 10.1875 -5.15625 C 10.582031 -4.726562 10.78125 -4.140625 10.78125 -3.390625 C 10.78125 -2.234375 10.335938 -1.347656 9.453125 -0.734375 C 8.578125 -0.117188 7.394531 0.1875 5.90625 0.1875 C 4.3125 0.1875 3.046875 -0.207031 2.109375 -1 C 1.242188 -1.695312 0.78125 -2.613281 0.71875 -3.75 L 2.578125 -3.75 C 2.691406 -2.65625 3.3125 -1.914062 4.4375 -1.53125 C 4.851562 -1.40625 5.265625 -1.34375 5.671875 -1.34375 C 6.078125 -1.34375 6.453125 -1.363281 6.796875 -1.40625 C 7.148438 -1.457031 7.5 -1.546875 7.84375 -1.671875 C 8.601562 -1.972656 8.984375 -2.488281 8.984375 -3.21875 C 8.984375 -3.71875 8.785156 -4.097656 8.390625 -4.359375 C 8.003906 -4.617188 7.515625 -4.832031 6.921875 -5 C 6.335938 -5.164062 5.695312 -5.316406 5 -5.453125 C 4.3125 -5.585938 3.671875 -5.773438 3.078125 -6.015625 C 2.492188 -6.253906 2.003906 -6.582031 1.609375 -7 C 1.222656 -7.414062 1.03125 -7.988281 1.03125 -8.71875 C 1.03125 -9.800781 1.421875 -10.640625 2.203125 -11.234375 C 2.992188 -11.835938 4.160156 -12.140625 5.703125 -12.140625 C 7.171875 -12.140625 8.328125 -11.785156 9.171875 -11.078125 C 9.867188 -10.492188 10.273438 -9.71875 10.390625 -8.75 Z M 8.578125 -8.75 "/></g></g><g style="fill:#000080;fill-opacity:1;"><g transform="translate(67.108831, 26.441446)"><path style="stroke:none" d="M 6.875 -1.4375 C 8.488281 -1.4375 9.644531 -2.101562 10.34375 -3.4375 L 12.296875 -3.4375 C 11.890625 -2.351562 11.234375 -1.476562 10.328125 -0.8125 C 9.429688 -0.144531 8.273438 0.1875 6.859375 0.1875 C 5.054688 0.1875 3.585938 -0.40625 2.453125 -1.59375 C 1.359375 -2.757812 0.8125 -4.21875 0.8125 -5.96875 C 0.8125 -7.738281 1.335938 -9.195312 2.390625 -10.34375 C 3.503906 -11.539062 4.953125 -12.140625 6.734375 -12.140625 C 8.515625 -12.140625 9.960938 -11.539062 11.078125 -10.34375 C 12.128906 -9.195312 12.65625 -7.738281 12.65625 -5.96875 L 12.65625 -5.25 L 2.65625 -5.25 C 2.78125 -4.15625 3.21875 -3.25 3.96875 -2.53125 C 4.726562 -1.800781 5.695312 -1.4375 6.875 -1.4375 Z M 6.734375 -10.515625 C 5.640625 -10.515625 4.71875 -10.171875 3.96875 -9.484375 C 3.269531 -8.828125 2.835938 -7.972656 2.671875 -6.921875 L 10.796875 -6.921875 C 10.640625 -7.972656 10.210938 -8.828125 9.515625 -9.484375 C 8.765625 -10.171875 7.835938 -10.515625 6.734375 -10.515625 Z M 6.734375 -10.515625 "/></g></g><g style="fill:#000080;fill-opacity:1;"><g transform="translate(80.406861, 26.441446)"><path style="stroke:none" d="M 3.34375 -11.953125 L 3.34375 -10.078125 C 3.769531 -10.648438 4.296875 -11.132812 4.921875 -11.53125 C 5.546875 -11.9375 6.253906 -12.140625 7.046875 -12.140625 C 7.847656 -12.140625 8.535156 -12.023438 9.109375 -11.796875 C 9.679688 -11.578125 10.179688 -11.242188 10.609375 -10.796875 C 11.597656 -9.828125 12.09375 -8.546875 12.09375 -6.953125 L 12.09375 0 L 10.296875 0 L 10.296875 -6.90625 C 10.296875 -8 9.984375 -8.875 9.359375 -9.53125 C 8.742188 -10.1875 7.941406 -10.515625 6.953125 -10.515625 C 5.953125 -10.515625 5.097656 -10.179688 4.390625 -9.515625 C 3.691406 -8.828125 3.34375 -7.945312 3.34375 -6.875 L 3.34375 0 L 1.546875 0 L 1.546875 -11.953125 Z M 3.34375 -11.953125 "/></g></g><g style="fill:#000080;fill-opacity:1;"><g transform="translate(93.633111, 26.441446)"><path style="stroke:none" d="M 2.84375 0 L 2.84375 -10.375 L 0.40625 -10.375 L 0.40625 -11.953125 L 2.84375 -11.953125 L 2.84375 -16.21875 L 4.640625 -16.21875 L 4.640625 -11.953125 L 7.375 -11.953125 L 7.375 -10.375 L 4.640625 -10.375 L 4.640625 0 Z M 2.84375 0 "/></g></g><g style="fill:#000080;fill-opacity:1;"><g transform="translate(101.416166, 26.441446)"><path style="stroke:none" d="M 1.546875 -11.953125 L 3.34375 -11.953125 L 3.34375 0 L 1.546875 0 Z M 3.421875 -16.296875 L 3.421875 -13.953125 L 1.484375 -13.953125 L 1.484375 -16.296875 Z M 3.421875 -16.296875 "/></g></g><g style="fill:#000080;fill-opacity:1;"><g transform="translate(106.310406, 26.441446)"><path style="stroke:none" d="M 3.34375 -11.953125 L 3.34375 -10.078125 C 3.769531 -10.648438 4.296875 -11.132812 4.921875 -11.53125 C 5.546875 -11.9375 6.253906 -12.140625 7.046875 -12.140625 C 7.847656 -12.140625 8.535156 -12.023438 9.109375 -11.796875 C 9.679688 -11.578125 10.179688 -11.242188 10.609375 -10.796875 C 11.597656 -9.828125 12.09375 -8.546875 12.09375 -6.953125 L 12.09375 0 L 10.296875 0 L 10.296875 -6.90625 C 10.296875 -8 9.984375 -8.875 9.359375 -9.53125 C 8.742188 -10.1875 7.941406 -10.515625 6.953125 -10.515625 C 5.953125 -10.515625 5.097656 -10.179688 4.390625 -9.515625 C 3.691406 -8.828125 3.34375 -7.945312 3.34375 -6.875 L 3.34375 0 L 1.546875 0 L 1.546875 -11.953125 Z M 3.34375 -11.953125 "/></g></g><g style="fill:#000080;fill-opacity:1;"><g transform="translate(119.823309, 26.441446)"><path style="stroke:none" d="M 6.875 -1.4375 C 8.488281 -1.4375 9.644531 -2.101562 10.34375 -3.4375 L 12.296875 -3.4375 C 11.890625 -2.351562 11.234375 -1.476562 10.328125 -0.8125 C 9.429688 -0.144531 8.273438 0.1875 6.859375 0.1875 C 5.054688 0.1875 3.585938 -0.40625 2.453125 -1.59375 C 1.359375 -2.757812 0.8125 -4.21875 0.8125 -5.96875 C 0.8125 -7.738281 1.335938 -9.195312 2.390625 -10.34375 C 3.503906 -11.539062 4.953125 -12.140625 6.734375 -12.140625 C 8.515625 -12.140625 9.960938 -11.539062 11.078125 -10.34375 C 12.128906 -9.195312 12.65625 -7.738281 12.65625 -5.96875 L 12.65625 -5.25 L 2.65625 -5.25 C 2.78125 -4.15625 3.21875 -3.25 3.96875 -2.53125 C 4.726562 -1.800781 5.695312 -1.4375 6.875 -1.4375 Z M 6.734375 -10.515625 C 5.640625 -10.515625 4.71875 -10.171875 3.96875 -9.484375 C 3.269531 -8.828125 2.835938 -7.972656 2.671875 -6.921875 L 10.796875 -6.921875 C 10.640625 -7.972656 10.210938 -8.828125 9.515625 -9.484375 C 8.765625 -10.171875 7.835938 -10.515625 6.734375 -10.515625 Z M 6.734375 -10.515625 "/></g></g><g style="fill:#000080;fill-opacity:1;"><g transform="translate(133.121339, 26.441446)"><path style="stroke:none" d="M 3.34375 0 L 1.546875 0 L 1.546875 -16.71875 L 3.34375 -16.71875 Z M 3.34375 0 "/></g></g><g clip-rule="nonzero" clip-path="url(#356e0ba727)"><g clip-rule="nonzero" clip-path="url(#fcd26f4a47)"><path style="fill:none;stroke-width:2;stroke-linecap:butt;stroke-linejoin:miter;stroke:#05f4f9;stroke-opacity:1;stroke-miterlimit:4;" d="M 13.033321 0.00227558 C 5.832586 0.00227558 -0.00119317 6.099759 -0.00119317 13.623397 C -0.00119317 21.147034 5.832586 27.249899 13.033321 27.249899 C 20.228674 27.249899 26.062453 21.147034 26.062453 13.623397 C 26.062453 6.099759 20.228674 0.00227558 13.033321 0.00227558 Z M 13.033321 0.00227558 " transform="matrix(0.725837,0,0,0.725837,26.356335,8.439755)"/></g></g><g clip-rule="nonzero" clip-path="url(#7c218d60ec)"><g clip-rule="nonzero" clip-path="url(#42c1dbc4ad)"><path style=" stroke:none;fill-rule:nonzero;fill:#ffffff;fill-opacity:1;" d="M 36.917969 11.03125 L 42.085938 11.03125 L 42.085938 16.199219 L 36.917969 16.199219 Z M 36.917969 11.03125 "/></g></g></g></svg>