<svg xmlns="http://www.w3.org/2000/svg" xmlns:xlink="http://www.w3.org/1999/xlink" width="199" zoomAndPan="magnify" viewBox="0 0 149.25 40.499999" height="54" preserveAspectRatio="xMidYMid meet" version="1.2"><defs><clipPath id="986b900b79"><path d="M 7 5.921875 L 46 5.921875 L 46 16 L 7 16 Z M 7 5.921875 "/></clipPath><clipPath id="be8177321b"><path d="M 0.539062 18 L 36 18 L 36 24 L 0.539062 24 Z M 0.539062 18 "/></clipPath><clipPath id="7120e373f5"><path d="M 22 22 L 72.402344 22 L 72.402344 38.519531 L 22 38.519531 Z M 22 22 "/></clipPath><clipPath id="e454e8dd1f"><path d="M 17.171875 0 L 53.761719 0 L 53.761719 36.589844 L 17.171875 36.589844 Z M 17.171875 0 "/></clipPath><clipPath id="3ded809002"><path d="M 35.464844 0 C 25.359375 0 17.171875 8.191406 17.171875 18.292969 C 17.171875 28.398438 25.359375 36.589844 35.464844 36.589844 C 45.570312 36.589844 53.761719 28.398438 53.761719 18.292969 C 53.761719 8.191406 45.570312 0 35.464844 0 Z M 35.464844 0 "/></clipPath><clipPath id="12df2e09c3"><path d="M 20.328125 3.15625 L 50.601562 3.15625 L 50.601562 33.433594 L 20.328125 33.433594 Z M 20.328125 3.15625 "/></clipPath><clipPath id="8cc7b9dcd9"><path d="M 35.464844 3.15625 C 27.105469 3.15625 20.328125 9.933594 20.328125 18.292969 C 20.328125 26.65625 27.105469 33.433594 35.464844 33.433594 C 43.824219 33.433594 50.601562 26.65625 50.601562 18.292969 C 50.601562 9.933594 43.824219 3.15625 35.464844 3.15625 Z M 35.464844 3.15625 "/></clipPath><clipPath id="50763ca667"><path d="M 26.4375 9.105469 L 44.652344 9.105469 L 44.652344 28.179688 L 26.4375 28.179688 Z M 26.4375 9.105469 "/></clipPath><clipPath id="7b93a8213a"><path d="M 35.542969 9.105469 C 30.515625 9.105469 26.4375 13.371094 26.4375 18.628906 C 26.4375 23.890625 30.515625 28.152344 35.542969 28.152344 C 40.574219 28.152344 44.652344 23.890625 44.652344 18.628906 C 44.652344 13.371094 40.574219 9.105469 35.542969 9.105469 Z M 35.542969 9.105469 "/></clipPath><clipPath id="c1db9f5821"><path d="M 30.601562 22.132812 L 33.144531 22.132812 L 33.144531 24.671875 L 30.601562 24.671875 Z M 30.601562 22.132812 "/></clipPath><clipPath id="2ca694636d"><path d="M 31.871094 22.132812 C 31.171875 22.132812 30.601562 22.699219 30.601562 23.402344 C 30.601562 24.101562 31.171875 24.671875 31.871094 24.671875 C 32.574219 24.671875 33.144531 24.101562 33.144531 23.402344 C 33.144531 22.699219 32.574219 22.132812 31.871094 22.132812 Z M 31.871094 22.132812 "/></clipPath><clipPath id="aabaad559c"><path d="M 25.808594 8.535156 L 44.941406 8.535156 L 44.941406 28.539062 L 25.808594 28.539062 Z M 25.808594 8.535156 "/></clipPath><clipPath id="75506bba7e"><path d="M 35.375 8.535156 C 30.09375 8.535156 25.808594 13.011719 25.808594 18.535156 C 25.808594 24.058594 30.09375 28.539062 35.375 28.539062 C 40.660156 28.539062 44.941406 24.058594 44.941406 18.535156 C 44.941406 13.011719 40.660156 8.535156 35.375 8.535156 Z M 35.375 8.535156 "/></clipPath><clipPath id="4c27df09e6"><path d="M 36.488281 11.15625 L 41.714844 11.15625 L 41.714844 16.382812 L 36.488281 16.382812 Z M 36.488281 11.15625 "/></clipPath><clipPath id="bbb167e311"><path d="M 39.101562 11.15625 C 37.660156 11.15625 36.488281 12.324219 36.488281 13.769531 C 36.488281 15.210938 37.660156 16.382812 39.101562 16.382812 C 40.546875 16.382812 41.714844 15.210938 41.714844 13.769531 C 41.714844 12.324219 40.546875 11.15625 39.101562 11.15625 Z M 39.101562 11.15625 "/></clipPath></defs><g id="1fbc05abf6"><g clip-rule="nonzero" clip-path="url(#986b900b79)"><path style=" stroke:none;fill-rule:nonzero;fill:#2f4faa;fill-opacity:1;" d="M 43.496094 6.933594 C 43.59375 7.242188 43.886719 7.46875 44.234375 7.46875 C 44.660156 7.46875 45.007812 7.125 45.007812 6.695312 C 45.007812 6.269531 44.660156 5.921875 44.234375 5.921875 C 43.886719 5.921875 43.59375 6.152344 43.496094 6.460938 L 31.636719 6.460938 L 24.007812 14.089844 L 8.6875 14.097656 C 8.589844 13.78125 8.296875 13.550781 7.949219 13.550781 C 7.519531 13.550781 7.175781 13.898438 7.175781 14.324219 C 7.175781 14.753906 7.519531 15.097656 7.949219 15.097656 C 8.292969 15.097656 8.582031 14.875 8.683594 14.566406 L 24.199219 14.558594 L 31.824219 6.933594 Z M 43.496094 6.933594 "/></g><path style=" stroke:none;fill-rule:nonzero;fill:#2f4faa;fill-opacity:1;" d="M 26.6875 15.71875 C 26.6875 16.144531 27.035156 16.492188 27.460938 16.492188 C 27.808594 16.492188 28.101562 16.265625 28.199219 15.953125 L 37.636719 15.953125 L 41.382812 19.699219 L 51.546875 19.699219 C 51.648438 20.0625 51.984375 20.328125 52.378906 20.328125 C 52.855469 20.328125 53.246094 19.9375 53.246094 19.460938 C 53.246094 18.984375 52.855469 18.59375 52.378906 18.59375 C 51.980469 18.59375 51.644531 18.863281 51.542969 19.230469 L 41.574219 19.230469 L 37.828125 15.484375 L 28.195312 15.484375 C 28.097656 15.171875 27.804688 14.945312 27.457031 14.945312 C 27.035156 14.945312 26.6875 15.289062 26.6875 15.71875 Z M 52.375 18.777344 C 52.75 18.777344 53.058594 19.082031 53.058594 19.457031 C 53.058594 19.832031 52.753906 20.136719 52.375 20.136719 C 52.003906 20.136719 51.695312 19.835938 51.695312 19.457031 C 51.695312 19.085938 52.003906 18.777344 52.375 18.777344 Z M 52.375 18.777344 "/><path style=" stroke:none;fill-rule:nonzero;fill:#2f4faa;fill-opacity:1;" d="M 65.429688 7.824219 C 65.007812 7.824219 64.65625 8.128906 64.582031 8.53125 L 51.417969 8.53125 L 48.03125 11.914062 L 32.691406 11.914062 C 32.59375 11.601562 32.300781 11.375 31.953125 11.375 C 31.527344 11.375 31.179688 11.722656 31.179688 12.148438 C 31.179688 12.578125 31.527344 12.921875 31.953125 12.921875 C 32.300781 12.921875 32.59375 12.695312 32.691406 12.382812 L 48.226562 12.382812 L 51.609375 9 L 64.621094 9 C 64.746094 9.328125 65.0625 9.5625 65.429688 9.5625 C 65.910156 9.5625 66.296875 9.171875 66.296875 8.695312 C 66.296875 8.210938 65.910156 7.824219 65.429688 7.824219 Z M 65.429688 9.367188 C 65.058594 9.367188 64.75 9.0625 64.75 8.6875 C 64.75 8.3125 65.054688 8.007812 65.429688 8.007812 C 65.804688 8.007812 66.113281 8.3125 66.113281 8.6875 C 66.113281 9.0625 65.804688 9.367188 65.429688 9.367188 Z M 65.429688 9.367188 "/><g clip-rule="nonzero" clip-path="url(#be8177321b)"><path style=" stroke:none;fill-rule:nonzero;fill:#2f4faa;fill-opacity:1;" d="M 34.796875 18.109375 C 34.371094 18.109375 34.019531 18.417969 33.945312 18.816406 L 20.777344 18.816406 L 17.398438 22.199219 L 2.054688 22.199219 C 1.957031 21.886719 1.664062 21.660156 1.320312 21.660156 C 0.890625 21.660156 0.546875 22.003906 0.546875 22.433594 C 0.546875 22.859375 0.890625 23.207031 1.320312 23.207031 C 1.664062 23.207031 1.957031 22.980469 2.054688 22.667969 L 17.589844 22.667969 L 20.972656 19.285156 L 33.984375 19.285156 C 34.109375 19.613281 34.425781 19.84375 34.796875 19.84375 C 35.273438 19.84375 35.660156 19.457031 35.660156 18.976562 C 35.660156 18.496094 35.273438 18.109375 34.796875 18.109375 Z M 34.796875 19.652344 C 34.421875 19.652344 34.113281 19.347656 34.113281 18.972656 C 34.113281 18.597656 34.417969 18.292969 34.796875 18.292969 C 35.171875 18.292969 35.476562 18.597656 35.476562 18.972656 C 35.472656 19.347656 35.167969 19.652344 34.796875 19.652344 Z M 34.796875 19.652344 "/></g><path style=" stroke:none;fill-rule:nonzero;fill:#2f4faa;fill-opacity:1;" d="M 13.105469 33.445312 C 13.449219 33.445312 13.742188 33.21875 13.84375 32.90625 L 23.472656 32.90625 L 27.21875 29.160156 L 37.1875 29.160156 C 37.289062 29.527344 37.625 29.796875 38.023438 29.796875 C 38.5 29.796875 38.890625 29.410156 38.890625 28.933594 C 38.890625 28.453125 38.5 28.066406 38.023438 28.066406 C 37.628906 28.066406 37.292969 28.332031 37.191406 28.695312 L 27.027344 28.695312 L 23.28125 32.441406 L 13.84375 32.441406 C 13.742188 32.128906 13.449219 31.902344 13.105469 31.902344 C 12.675781 31.902344 12.332031 32.246094 12.332031 32.675781 C 12.335938 33.101562 12.679688 33.445312 13.105469 33.445312 Z M 37.34375 28.933594 C 37.34375 28.558594 37.648438 28.25 38.023438 28.25 C 38.398438 28.25 38.703125 28.554688 38.703125 28.933594 C 38.703125 29.304688 38.398438 29.613281 38.023438 29.613281 C 37.648438 29.613281 37.34375 29.308594 37.34375 28.933594 Z M 37.34375 28.933594 "/><g clip-rule="nonzero" clip-path="url(#7120e373f5)"><path style=" stroke:none;fill-rule:nonzero;fill:#2f4faa;fill-opacity:1;" d="M 71.625 36.773438 C 71.496094 36.773438 71.375 36.804688 71.269531 36.863281 L 66.566406 32.160156 L 47 32.160156 L 37.996094 23.15625 L 23.859375 23.15625 C 23.757812 22.792969 23.421875 22.527344 23.027344 22.527344 C 22.550781 22.527344 22.160156 22.914062 22.160156 23.390625 C 22.160156 23.867188 22.550781 24.257812 23.027344 24.257812 C 23.425781 24.257812 23.761719 23.988281 23.863281 23.621094 L 37.800781 23.621094 L 46.804688 32.625 L 66.371094 32.625 L 70.9375 37.191406 C 70.882812 37.296875 70.851562 37.417969 70.851562 37.546875 C 70.851562 37.976562 71.195312 38.320312 71.625 38.320312 C 72.050781 38.320312 72.398438 37.976562 72.398438 37.546875 C 72.398438 37.117188 72.050781 36.773438 71.625 36.773438 Z M 23.027344 24.074219 C 22.652344 24.074219 22.347656 23.769531 22.347656 23.390625 C 22.347656 23.015625 22.652344 22.710938 23.027344 22.710938 C 23.402344 22.710938 23.707031 23.015625 23.707031 23.390625 C 23.707031 23.769531 23.402344 24.074219 23.027344 24.074219 Z M 23.027344 24.074219 "/></g><g clip-rule="nonzero" clip-path="url(#e454e8dd1f)"><g clip-rule="nonzero" clip-path="url(#3ded809002)"><path style=" stroke:none;fill-rule:nonzero;fill:#000080;fill-opacity:1;" d="M 17.171875 0 L 53.761719 0 L 53.761719 36.589844 L 17.171875 36.589844 Z M 17.171875 0 "/></g></g><g clip-rule="nonzero" clip-path="url(#12df2e09c3)"><g clip-rule="nonzero" clip-path="url(#8cc7b9dcd9)"><path style=" stroke:none;fill-rule:nonzero;fill:#ffffff;fill-opacity:1;" d="M 20.328125 3.15625 L 50.601562 3.15625 L 50.601562 33.433594 L 20.328125 33.433594 Z M 20.328125 3.15625 "/></g></g><g clip-rule="nonzero" clip-path="url(#50763ca667)"><g clip-rule="nonzero" clip-path="url(#7b93a8213a)"><path style=" stroke:none;fill-rule:nonzero;fill:#000000;fill-opacity:1;" d="M 26.4375 9.105469 L 44.652344 9.105469 L 44.652344 28.179688 L 26.4375 28.179688 Z M 26.4375 9.105469 "/></g></g><g clip-rule="nonzero" clip-path="url(#c1db9f5821)"><g clip-rule="nonzero" clip-path="url(#2ca694636d)"><path style=" stroke:none;fill-rule:nonzero;fill:#ff3131;fill-opacity:1;" d="M 30.601562 22.132812 L 33.144531 22.132812 L 33.144531 24.671875 L 30.601562 24.671875 Z M 30.601562 22.132812 "/></g></g><g style="fill:#000080;fill-opacity:1;"><g transform="translate(55.385961, 26.740867)"><path style="stroke:none" d="M 8.671875 -8.84375 C 8.515625 -10.09375 7.503906 -10.71875 5.640625 -10.71875 C 3.773438 -10.71875 2.84375 -10.140625 2.84375 -8.984375 C 2.84375 -8.503906 3.039062 -8.140625 3.4375 -7.890625 C 3.832031 -7.640625 4.328125 -7.429688 4.921875 -7.265625 C 5.523438 -7.109375 6.175781 -6.960938 6.875 -6.828125 C 7.570312 -6.691406 8.21875 -6.5 8.8125 -6.25 C 9.40625 -6 9.898438 -5.65625 10.296875 -5.21875 C 10.691406 -4.78125 10.890625 -4.1875 10.890625 -3.4375 C 10.890625 -2.257812 10.445312 -1.359375 9.5625 -0.734375 C 8.675781 -0.117188 7.476562 0.1875 5.96875 0.1875 C 4.351562 0.1875 3.070312 -0.210938 2.125 -1.015625 C 1.257812 -1.722656 0.789062 -2.648438 0.71875 -3.796875 L 2.609375 -3.796875 C 2.722656 -2.679688 3.351562 -1.929688 4.5 -1.546875 C 4.914062 -1.421875 5.328125 -1.359375 5.734375 -1.359375 C 6.148438 -1.359375 6.535156 -1.378906 6.890625 -1.421875 C 7.242188 -1.472656 7.585938 -1.5625 7.921875 -1.6875 C 8.691406 -2 9.078125 -2.523438 9.078125 -3.265625 C 9.078125 -3.765625 8.878906 -4.144531 8.484375 -4.40625 C 8.097656 -4.675781 7.601562 -4.894531 7 -5.0625 C 6.40625 -5.226562 5.757812 -5.378906 5.0625 -5.515625 C 4.363281 -5.648438 3.710938 -5.835938 3.109375 -6.078125 C 2.515625 -6.328125 2.019531 -6.660156 1.625 -7.078125 C 1.226562 -7.492188 1.03125 -8.070312 1.03125 -8.8125 C 1.03125 -9.90625 1.429688 -10.753906 2.234375 -11.359375 C 3.035156 -11.960938 4.210938 -12.265625 5.765625 -12.265625 C 7.253906 -12.265625 8.425781 -11.910156 9.28125 -11.203125 C 9.988281 -10.609375 10.398438 -9.820312 10.515625 -8.84375 Z M 8.671875 -8.84375 "/></g></g><g style="fill:#000080;fill-opacity:1;"><g transform="translate(67.023718, 26.740867)"><path style="stroke:none" d="M 6.953125 -1.453125 C 8.578125 -1.453125 9.742188 -2.128906 10.453125 -3.484375 L 12.4375 -3.484375 C 12.019531 -2.378906 11.351562 -1.488281 10.4375 -0.8125 C 9.53125 -0.144531 8.363281 0.1875 6.9375 0.1875 C 5.113281 0.1875 3.628906 -0.414062 2.484375 -1.625 C 1.378906 -2.789062 0.828125 -4.265625 0.828125 -6.046875 C 0.828125 -7.828125 1.359375 -9.296875 2.421875 -10.453125 C 3.546875 -11.660156 5.007812 -12.265625 6.8125 -12.265625 C 8.613281 -12.265625 10.078125 -11.660156 11.203125 -10.453125 C 12.265625 -9.296875 12.796875 -7.828125 12.796875 -6.046875 L 12.796875 -5.3125 L 2.6875 -5.3125 C 2.8125 -4.195312 3.253906 -3.28125 4.015625 -2.5625 C 4.785156 -1.820312 5.765625 -1.453125 6.953125 -1.453125 Z M 6.8125 -10.625 C 5.695312 -10.625 4.765625 -10.28125 4.015625 -9.59375 C 3.304688 -8.925781 2.867188 -8.0625 2.703125 -7 L 10.921875 -7 C 10.753906 -8.0625 10.316406 -8.925781 9.609375 -9.59375 C 8.859375 -10.28125 7.925781 -10.625 6.8125 -10.625 Z M 6.8125 -10.625 "/></g></g><g style="fill:#000080;fill-opacity:1;"><g transform="translate(80.472334, 26.740867)"><path style="stroke:none" d="M 3.375 -12.078125 L 3.375 -10.1875 C 3.8125 -10.769531 4.34375 -11.257812 4.96875 -11.65625 C 5.601562 -12.0625 6.320312 -12.265625 7.125 -12.265625 C 7.925781 -12.265625 8.617188 -12.148438 9.203125 -11.921875 C 9.785156 -11.703125 10.289062 -11.367188 10.71875 -10.921875 C 11.71875 -9.929688 12.21875 -8.632812 12.21875 -7.03125 L 12.21875 0 L 10.40625 0 L 10.40625 -6.984375 C 10.40625 -8.085938 10.09375 -8.96875 9.46875 -9.625 C 8.84375 -10.289062 8.03125 -10.625 7.03125 -10.625 C 6.007812 -10.625 5.144531 -10.285156 4.4375 -9.609375 C 3.726562 -8.921875 3.375 -8.035156 3.375 -6.953125 L 3.375 0 L 1.5625 0 L 1.5625 -12.078125 Z M 3.375 -12.078125 "/></g></g><g style="fill:#000080;fill-opacity:1;"><g transform="translate(93.848359, 26.740867)"><path style="stroke:none" d="M 2.875 0 L 2.875 -10.484375 L 0.40625 -10.484375 L 0.40625 -12.078125 L 2.875 -12.078125 L 2.875 -16.40625 L 4.6875 -16.40625 L 4.6875 -12.078125 L 7.46875 -12.078125 L 7.46875 -10.484375 L 4.6875 -10.484375 L 4.6875 0 Z M 2.875 0 "/></g></g><g style="fill:#000080;fill-opacity:1;"><g transform="translate(101.719549, 26.740867)"><path style="stroke:none" d="M 1.5625 -12.078125 L 3.375 -12.078125 L 3.375 0 L 1.5625 0 Z M 3.453125 -16.46875 L 3.453125 -14.109375 L 1.5 -14.109375 L 1.5 -16.46875 Z M 3.453125 -16.46875 "/></g></g><g style="fill:#000080;fill-opacity:1;"><g transform="translate(106.669212, 26.740867)"><path style="stroke:none" d="M 3.375 -12.078125 L 3.375 -10.1875 C 3.8125 -10.769531 4.34375 -11.257812 4.96875 -11.65625 C 5.601562 -12.0625 6.320312 -12.265625 7.125 -12.265625 C 7.925781 -12.265625 8.617188 -12.148438 9.203125 -11.921875 C 9.785156 -11.703125 10.289062 -11.367188 10.71875 -10.921875 C 11.71875 -9.929688 12.21875 -8.632812 12.21875 -7.03125 L 12.21875 0 L 10.40625 0 L 10.40625 -6.984375 C 10.40625 -8.085938 10.09375 -8.96875 9.46875 -9.625 C 8.84375 -10.289062 8.03125 -10.625 7.03125 -10.625 C 6.007812 -10.625 5.144531 -10.285156 4.4375 -9.609375 C 3.726562 -8.921875 3.375 -8.035156 3.375 -6.953125 L 3.375 0 L 1.5625 0 L 1.5625 -12.078125 Z M 3.375 -12.078125 "/></g></g><g style="fill:#000080;fill-opacity:1;"><g transform="translate(120.335134, 26.740867)"><path style="stroke:none" d="M 6.953125 -1.453125 C 8.578125 -1.453125 9.742188 -2.128906 10.453125 -3.484375 L 12.4375 -3.484375 C 12.019531 -2.378906 11.351562 -1.488281 10.4375 -0.8125 C 9.53125 -0.144531 8.363281 0.1875 6.9375 0.1875 C 5.113281 0.1875 3.628906 -0.414062 2.484375 -1.625 C 1.378906 -2.789062 0.828125 -4.265625 0.828125 -6.046875 C 0.828125 -7.828125 1.359375 -9.296875 2.421875 -10.453125 C 3.546875 -11.660156 5.007812 -12.265625 6.8125 -12.265625 C 8.613281 -12.265625 10.078125 -11.660156 11.203125 -10.453125 C 12.265625 -9.296875 12.796875 -7.828125 12.796875 -6.046875 L 12.796875 -5.3125 L 2.6875 -5.3125 C 2.8125 -4.195312 3.253906 -3.28125 4.015625 -2.5625 C 4.785156 -1.820312 5.765625 -1.453125 6.953125 -1.453125 Z M 6.8125 -10.625 C 5.695312 -10.625 4.765625 -10.28125 4.015625 -9.59375 C 3.304688 -8.925781 2.867188 -8.0625 2.703125 -7 L 10.921875 -7 C 10.753906 -8.0625 10.316406 -8.925781 9.609375 -9.59375 C 8.859375 -10.28125 7.925781 -10.625 6.8125 -10.625 Z M 6.8125 -10.625 "/></g></g><g style="fill:#000080;fill-opacity:1;"><g transform="translate(133.783751, 26.740867)"><path style="stroke:none" d="M 3.375 0 L 1.5625 0 L 1.5625 -16.90625 L 3.375 -16.90625 Z M 3.375 0 "/></g></g><g clip-rule="nonzero" clip-path="url(#aabaad559c)"><g clip-rule="nonzero" clip-path="url(#75506bba7e)"><path style="fill:none;stroke-width:2;stroke-linecap:butt;stroke-linejoin:miter;stroke:#05f4f9;stroke-opacity:1;stroke-miterlimit:4;" d="M 13.030681 -0.00022897 C 5.836074 -0.00022897 -0.0015623 6.098158 -0.0015623 13.622696 C -0.0015623 21.147233 5.836074 27.250942 13.030681 27.250942 C 20.230609 27.250942 26.062924 21.147233 26.062924 13.622696 C 26.062924 6.098158 20.230609 -0.00022897 13.030681 -0.00022897 Z M 13.030681 -0.00022897 " transform="matrix(0.734057,0,0,0.734057,25.809741,8.535324)"/></g></g><g clip-rule="nonzero" clip-path="url(#4c27df09e6)"><g clip-rule="nonzero" clip-path="url(#bbb167e311)"><path style=" stroke:none;fill-rule:nonzero;fill:#ffffff;fill-opacity:1;" d="M 36.488281 11.15625 L 41.714844 11.15625 L 41.714844 16.382812 L 36.488281 16.382812 Z M 36.488281 11.15625 "/></g></g></g></svg>